<?xml version="1.0" encoding="UTF-8" standalone="no"?>
<!-- Created with Inkscape (http://www.inkscape.org/) -->

<svg
   xmlns:dc="http://purl.org/dc/elements/1.1/"
   xmlns:cc="http://creativecommons.org/ns#"
   xmlns:rdf="http://www.w3.org/1999/02/22-rdf-syntax-ns#"
   xmlns:svg="http://www.w3.org/2000/svg"
   xmlns="http://www.w3.org/2000/svg"
   xmlns:sodipodi="http://sodipodi.sourceforge.net/DTD/sodipodi-0.dtd"
   xmlns:inkscape="http://www.inkscape.org/namespaces/inkscape"
   width="12"
   height="12"
   id="svg17653"
   version="1.1"
   inkscape:version="0.48.4 r9939"
   sodipodi:docname="resize-grip.svg">
  <defs
     id="defs17655" />
  <sodipodi:namedview
     id="base"
     pagecolor="#ffffff"
     bordercolor="#666666"
     borderopacity="1.0"
     inkscape:pageopacity="0.0"
     inkscape:pageshadow="2"
     inkscape:zoom="59.5"
     inkscape:cx="6"
     inkscape:cy="6"
     inkscape:current-layer="layer1"
     showgrid="true"
     inkscape:grid-bbox="true"
     inkscape:document-units="px"
     inkscape:window-width="1920"
     inkscape:window-height="917"
     inkscape:window-x="0"
     inkscape:window-y="27"
     inkscape:window-maximized="1">
    <inkscape:grid
       type="xygrid"
       id="grid3758"
       empspacing="5"
       visible="true"
       enabled="true"
       snapvisiblegridlinesonly="true" />
  </sodipodi:namedview>
  <metadata
     id="metadata17658">
    <rdf:RDF>
      <cc:Work
         rdf:about="">
        <dc:format>image/svg+xml</dc:format>
        <dc:type
           rdf:resource="http://purl.org/dc/dcmitype/StillImage" />
        <dc:title />
      </cc:Work>
    </rdf:RDF>
  </metadata>
  <g
     id="layer1"
     inkscape:label="Layer 1"
     inkscape:groupmode="layer"
     transform="translate(0,-4)">
    <path
       sodipodi:type="arc"
       style="fill:#4e9a06;fill-opacity:1;stroke:none"
       id="path3776"
       sodipodi:cx="11"
       sodipodi:cy="1"
       sodipodi:rx="1"
       sodipodi:ry="1"
       d="m 12,1 a 1,1 0 1 1 -2,0 1,1 0 1 1 2,0 z"
       transform="translate(0,4)" />
    <path
       sodipodi:type="arc"
       style="fill:#4e9a06;fill-opacity:1;stroke:none"
       id="path3778"
       sodipodi:cx="11"
       sodipodi:cy="6"
       sodipodi:rx="1"
       sodipodi:ry="1"
       d="m 12,6 a 1,1 0 1 1 -2,0 1,1 0 1 1 2,0 z"
       transform="translate(0,4)" />
    <path
       sodipodi:type="arc"
       style="fill:#4e9a06;fill-opacity:1;stroke:none"
       id="path3780"
       sodipodi:cx="11"
       sodipodi:cy="11"
       sodipodi:rx="1"
       sodipodi:ry="1"
       d="m 12,11 a 1,1 0 1 1 -2,0 1,1 0 1 1 2,0 z"
       transform="translate(0,4)" />
    <path
       sodipodi:type="arc"
       style="fill:#4e9a06;fill-opacity:1;stroke:none"
       id="path3782"
       sodipodi:cx="6"
       sodipodi:cy="11"
       sodipodi:rx="1"
       sodipodi:ry="1"
       d="m 7,11 a 1,1 0 1 1 -2,0 1,1 0 1 1 2,0 z"
       transform="translate(0,4)" />
    <path
       sodipodi:type="arc"
       style="fill:#4e9a06;fill-opacity:1;stroke:none"
       id="path3784"
       sodipodi:cx="1"
       sodipodi:cy="11"
       sodipodi:rx="1"
       sodipodi:ry="1"
       d="m 2,11 a 1,1 0 1 1 -2,0 1,1 0 1 1 2,0 z"
       transform="translate(0,4)" />
    <path
       sodipodi:type="arc"
       style="fill:#4e9a06;fill-opacity:1;stroke:none"
       id="path3786"
       sodipodi:cx="6"
       sodipodi:cy="6"
       sodipodi:rx="1"
       sodipodi:ry="1"
       d="M 7,6 A 1,1 0 1 1 5,6 1,1 0 1 1 7,6 z"
       transform="translate(0,4)" />
  </g>
</svg>
