<?xml version="1.0" encoding="UTF-8" standalone="no"?>
<!-- Created with Inkscape (http://www.inkscape.org/) -->

<svg
   xmlns:dc="http://purl.org/dc/elements/1.1/"
   xmlns:cc="http://creativecommons.org/ns#"
   xmlns:rdf="http://www.w3.org/1999/02/22-rdf-syntax-ns#"
   xmlns:svg="http://www.w3.org/2000/svg"
   xmlns="http://www.w3.org/2000/svg"
   xmlns:sodipodi="http://sodipodi.sourceforge.net/DTD/sodipodi-0.dtd"
   xmlns:inkscape="http://www.inkscape.org/namespaces/inkscape"
   width="2"
   height="22"
   id="svg32934"
   version="1.1"
   inkscape:version="0.48.4 r9939"
   sodipodi:docname="pane-separator-grip.svg">
  <defs
     id="defs32936" />
  <sodipodi:namedview
     id="base"
     pagecolor="#ffffff"
     bordercolor="#666666"
     borderopacity="1.0"
     inkscape:pageopacity="0.0"
     inkscape:pageshadow="2"
     inkscape:zoom="32.454545"
     inkscape:cx="1"
     inkscape:cy="11"
     inkscape:current-layer="layer1"
     showgrid="true"
     inkscape:grid-bbox="true"
     inkscape:document-units="px"
     inkscape:window-width="1920"
     inkscape:window-height="917"
     inkscape:window-x="0"
     inkscape:window-y="27"
     inkscape:window-maximized="1">
    <inkscape:grid
       type="xygrid"
       id="grid3836"
       empspacing="5"
       visible="true"
       enabled="true"
       snapvisiblegridlinesonly="true" />
  </sodipodi:namedview>
  <metadata
     id="metadata32939">
    <rdf:RDF>
      <cc:Work
         rdf:about="">
        <dc:format>image/svg+xml</dc:format>
        <dc:type
           rdf:resource="http://purl.org/dc/dcmitype/StillImage" />
        <dc:title />
      </cc:Work>
    </rdf:RDF>
  </metadata>
  <g
     id="layer1"
     inkscape:label="Layer 1"
     inkscape:groupmode="layer"
     transform="translate(0,6)">
    <path
       sodipodi:type="arc"
       style="fill:#888a85;fill-opacity:1;stroke:none"
       id="path3838"
       sodipodi:cx="1"
       sodipodi:cy="1"
       sodipodi:rx="1"
       sodipodi:ry="1"
       d="M 2,1 A 1,1 0 1 1 0,1 1,1 0 1 1 2,1 z"
       transform="translate(0,-6)" />
    <path
       sodipodi:type="arc"
       style="fill:#888a85;fill-opacity:1;stroke:none"
       id="path3840"
       sodipodi:cx="1"
       sodipodi:cy="6"
       sodipodi:rx="1"
       sodipodi:ry="1"
       d="M 2,6 A 1,1 0 1 1 0,6 1,1 0 1 1 2,6 z"
       transform="translate(0,-6)" />
    <path
       sodipodi:type="arc"
       style="fill:#888a85;fill-opacity:1;stroke:none"
       id="path3842"
       sodipodi:cx="1"
       sodipodi:cy="11"
       sodipodi:rx="1"
       sodipodi:ry="1"
       d="m 2,11 a 1,1 0 1 1 -2,0 1,1 0 1 1 2,0 z"
       transform="translate(0,-6)" />
    <path
       sodipodi:type="arc"
       style="fill:#888a85;fill-opacity:1;stroke:none"
       id="path3844"
       sodipodi:cx="1"
       sodipodi:cy="16"
       sodipodi:rx="1"
       sodipodi:ry="1"
       d="m 2,16 a 1,1 0 1 1 -2,0 1,1 0 1 1 2,0 z"
       transform="translate(0,-6)" />
    <path
       sodipodi:type="arc"
       style="fill:#888a85;fill-opacity:1;stroke:none"
       id="path3846"
       sodipodi:cx="1"
       sodipodi:cy="21"
       sodipodi:rx="1"
       sodipodi:ry="1"
       d="m 2,21 a 1,1 0 1 1 -2,0 1,1 0 1 1 2,0 z"
       transform="translate(0,-6)" />
  </g>
</svg>
