<?xml version="1.0" encoding="UTF-8" standalone="no"?>
<!-- Created with Inkscape (http://www.inkscape.org/) -->

<svg
   xmlns:dc="http://purl.org/dc/elements/1.1/"
   xmlns:cc="http://creativecommons.org/ns#"
   xmlns:rdf="http://www.w3.org/1999/02/22-rdf-syntax-ns#"
   xmlns:svg="http://www.w3.org/2000/svg"
   xmlns="http://www.w3.org/2000/svg"
   xmlns:sodipodi="http://sodipodi.sourceforge.net/DTD/sodipodi-0.dtd"
   xmlns:inkscape="http://www.inkscape.org/namespaces/inkscape"
   width="22"
   height="2"
   id="svg32934"
   version="1.1"
   inkscape:version="0.48.4 r9939"
   sodipodi:docname="pane-separator-grip-vertical.svg">
  <defs
     id="defs32936" />
  <sodipodi:namedview
     id="base"
     pagecolor="#ffffff"
     bordercolor="#666666"
     borderopacity="1.0"
     inkscape:pageopacity="0.0"
     inkscape:pageshadow="2"
     inkscape:zoom="60.954545"
     inkscape:cx="11"
     inkscape:cy="1"
     inkscape:current-layer="layer1"
     showgrid="true"
     inkscape:grid-bbox="true"
     inkscape:document-units="px"
     inkscape:window-width="1920"
     inkscape:window-height="917"
     inkscape:window-x="0"
     inkscape:window-y="27"
     inkscape:window-maximized="1">
    <inkscape:grid
       type="xygrid"
       id="grid3757"
       empspacing="5"
       visible="true"
       enabled="true"
       snapvisiblegridlinesonly="true" />
  </sodipodi:namedview>
  <metadata
     id="metadata32939">
    <rdf:RDF>
      <cc:Work
         rdf:about="">
        <dc:format>image/svg+xml</dc:format>
        <dc:type
           rdf:resource="http://purl.org/dc/dcmitype/StillImage" />
        <dc:title />
      </cc:Work>
    </rdf:RDF>
  </metadata>
  <g
     id="layer1"
     inkscape:label="Layer 1"
     inkscape:groupmode="layer"
     transform="translate(0,-14)">
    <path
       sodipodi:type="arc"
       style="fill:#888a85;fill-opacity:1;stroke:none"
       id="path3759"
       sodipodi:cx="1"
       sodipodi:cy="1"
       sodipodi:rx="1"
       sodipodi:ry="1"
       d="M 2,1 A 1,1 0 1 1 0,1 1,1 0 1 1 2,1 z"
       transform="translate(0,14)" />
    <path
       sodipodi:type="arc"
       style="fill:#888a85;fill-opacity:1;stroke:none"
       id="path3761"
       sodipodi:cx="6"
       sodipodi:cy="1"
       sodipodi:rx="1"
       sodipodi:ry="1"
       d="M 7,1 A 1,1 0 1 1 5,1 1,1 0 1 1 7,1 z"
       transform="translate(0,14)" />
    <path
       sodipodi:type="arc"
       style="fill:#888a85;fill-opacity:1;stroke:none"
       id="path3763"
       sodipodi:cx="11"
       sodipodi:cy="1"
       sodipodi:rx="1"
       sodipodi:ry="1"
       d="m 12,1 a 1,1 0 1 1 -2,0 1,1 0 1 1 2,0 z"
       transform="translate(0,14)" />
    <path
       sodipodi:type="arc"
       style="fill:#888a85;fill-opacity:1;stroke:none"
       id="path3765"
       sodipodi:cx="16"
       sodipodi:cy="1"
       sodipodi:rx="1"
       sodipodi:ry="1"
       d="m 17,1 a 1,1 0 1 1 -2,0 1,1 0 1 1 2,0 z"
       transform="translate(0,14)" />
    <path
       sodipodi:type="arc"
       style="fill:#888a85;fill-opacity:1;stroke:none"
       id="path3767"
       sodipodi:cx="21"
       sodipodi:cy="1"
       sodipodi:rx="1"
       sodipodi:ry="1"
       d="m 22,1 a 1,1 0 1 1 -2,0 1,1 0 1 1 2,0 z"
       transform="translate(0,14)" />
  </g>
</svg>
